<svg xmlns="http://www.w3.org/2000/svg" width="512" height="512" viewBox="0 0 168 168">
  <rect width="168" height="168" rx="36" fill="#080b0d"/>
  <g transform="translate(7 21)" shape-rendering="crispEdges">
    <rect x="56" y="0" width="14" height="14" fill="#d75fd7"/>
    <rect x="70" y="0" width="14" height="14" fill="#d75fd7"/>
    <rect x="84" y="0" width="14" height="14" fill="#d75fd7"/>
    <rect x="42" y="14" width="14" height="14" fill="#d75fd7"/>
    <rect x="56" y="14" width="14" height="14" fill="#d75fd7"/>
    <rect x="70" y="14" width="14" height="14" fill="#d75fd7"/>
    <rect x="84" y="14" width="14" height="14" fill="#d75fd7"/>
    <rect x="98" y="14" width="14" height="14" fill="#d75fd7"/>
    <rect x="140" y="14" width="14" height="14" fill="#5fd7d7"/>
    <rect x="56" y="28" width="14" height="14" fill="#d75fd7"/>
    <rect x="70" y="28" width="14" height="14" fill="#d75fd7"/>
    <rect x="84" y="28" width="14" height="14" fill="#d75fd7"/>
    <rect x="98" y="28" width="14" height="14" fill="#d75fd7"/>
    <rect x="126" y="28" width="14" height="14" fill="#5fd7d7"/>
    <rect x="140" y="28" width="14" height="14" fill="#5fd7d7"/>
    <rect x="0" y="42" width="14" height="14" fill="#ff8700"/>
    <rect x="14" y="42" width="14" height="14" fill="#ff8700"/>
    <rect x="28" y="42" width="14" height="14" fill="#ff8700"/>
    <rect x="42" y="42" width="14" height="14" fill="#ff8700"/>
    <rect x="56" y="42" width="14" height="14" fill="#00afaf"/>
    <rect x="70" y="42" width="14" height="14" fill="#00afaf"/>
    <rect x="84" y="42" width="14" height="14" fill="#fff"/>
    <rect x="98" y="42" width="14" height="14" fill="#00afaf"/>
    <rect x="112" y="42" width="14" height="14" fill="#5fd7d7"/>
    <rect x="126" y="42" width="14" height="14" fill="#5fd7d7"/>
    <rect x="56" y="56" width="14" height="14" fill="#00afaf"/>
    <rect x="70" y="56" width="14" height="14" fill="#00afaf"/>
    <rect x="84" y="56" width="14" height="14" fill="#00afaf"/>
    <rect x="98" y="56" width="14" height="14" fill="#00afaf"/>
    <rect x="112" y="56" width="14" height="14" fill="#00afaf"/>
    <rect x="126" y="56" width="14" height="14" fill="#5fd7d7"/>
    <rect x="140" y="56" width="14" height="14" fill="#5fd7d7"/>
    <rect x="70" y="70" width="14" height="14" fill="#00afaf"/>
    <rect x="84" y="70" width="14" height="14" fill="#00afaf"/>
    <rect x="98" y="70" width="14" height="14" fill="#00afaf"/>
    <rect x="112" y="70" width="14" height="14" fill="#00afaf"/>
    <rect x="126" y="70" width="14" height="14" fill="#5fd7d7"/>
    <rect x="140" y="70" width="14" height="14" fill="#5fd7d7"/>
    <rect x="84" y="84" width="14" height="14" fill="#00afaf"/>
    <rect x="98" y="84" width="14" height="14" fill="#00afaf"/>
    <rect x="112" y="84" width="14" height="14" fill="#5fd7d7"/>
    <rect x="126" y="84" width="14" height="14" fill="#5fd7d7"/>
    <rect x="98" y="98" width="14" height="14" fill="#00afaf"/>
    <rect x="112" y="98" width="14" height="14" fill="#5fd7d7"/>
    <rect x="112" y="112" width="14" height="14" fill="#5fd7d7"/>
  </g>
</svg>
